<mxfile host="app.diagrams.net" agent="Mozilla/5.0 (X11; Ubuntu; Linux x86_64; rv:136.0) Gecko/20100101 Firefox/136.0" version="26.2.3">
  <diagram name="Page-1" id="tXs6F8YVzXL5FzozejlN">
    <mxGraphModel dx="1268" dy="718" grid="1" gridSize="10" guides="1" tooltips="1" connect="1" arrows="1" fold="1" page="1" pageScale="1" pageWidth="850" pageHeight="1100" math="0" shadow="0">
      <root>
        <mxCell id="0" />
        <mxCell id="1" parent="0" />
        <mxCell id="RrsJA2He8QtnNLLxYfof-7" style="edgeStyle=orthogonalEdgeStyle;rounded=0;orthogonalLoop=1;jettySize=auto;html=1;exitX=1;exitY=0.5;exitDx=0;exitDy=0;" edge="1" parent="1" source="RrsJA2He8QtnNLLxYfof-8" target="RrsJA2He8QtnNLLxYfof-5">
          <mxGeometry relative="1" as="geometry" />
        </mxCell>
        <mxCell id="RrsJA2He8QtnNLLxYfof-1" value="&lt;font style=&quot;font-size: 24px;&quot;&gt;FrontEnd&lt;/font&gt;" style="rounded=1;whiteSpace=wrap;html=1;" vertex="1" parent="1">
          <mxGeometry x="90" y="260" width="120" height="60" as="geometry" />
        </mxCell>
        <mxCell id="RrsJA2He8QtnNLLxYfof-2" value="" style="shape=trapezoid;perimeter=trapezoidPerimeter;whiteSpace=wrap;html=1;fixedSize=1;" vertex="1" parent="1">
          <mxGeometry x="120" y="320" width="60" height="10" as="geometry" />
        </mxCell>
        <mxCell id="RrsJA2He8QtnNLLxYfof-5" value="&lt;font style=&quot;font-size: 24px;&quot;&gt;Backend&lt;/font&gt;" style="rounded=1;whiteSpace=wrap;html=1;" vertex="1" parent="1">
          <mxGeometry x="540" y="260" width="120" height="60" as="geometry" />
        </mxCell>
        <mxCell id="RrsJA2He8QtnNLLxYfof-6" value="" style="shape=trapezoid;perimeter=trapezoidPerimeter;whiteSpace=wrap;html=1;fixedSize=1;" vertex="1" parent="1">
          <mxGeometry x="570" y="320" width="60" height="10" as="geometry" />
        </mxCell>
        <mxCell id="RrsJA2He8QtnNLLxYfof-15" style="edgeStyle=orthogonalEdgeStyle;rounded=0;orthogonalLoop=1;jettySize=auto;html=1;entryX=0.5;entryY=1;entryDx=0;entryDy=0;" edge="1" parent="1" source="RrsJA2He8QtnNLLxYfof-16" target="RrsJA2He8QtnNLLxYfof-6">
          <mxGeometry relative="1" as="geometry" />
        </mxCell>
        <mxCell id="RrsJA2He8QtnNLLxYfof-11" value="&lt;font style=&quot;font-size: 24px;&quot;&gt;Cloudinary&lt;/font&gt;" style="rounded=1;whiteSpace=wrap;html=1;" vertex="1" parent="1">
          <mxGeometry x="390" y="410" width="120" height="60" as="geometry" />
        </mxCell>
        <mxCell id="RrsJA2He8QtnNLLxYfof-12" value="" style="shape=trapezoid;perimeter=trapezoidPerimeter;whiteSpace=wrap;html=1;fixedSize=1;" vertex="1" parent="1">
          <mxGeometry x="420" y="470" width="60" height="10" as="geometry" />
        </mxCell>
        <mxCell id="RrsJA2He8QtnNLLxYfof-17" value="" style="edgeStyle=orthogonalEdgeStyle;rounded=0;orthogonalLoop=1;jettySize=auto;html=1;entryX=0.5;entryY=1;entryDx=0;entryDy=0;" edge="1" parent="1" source="RrsJA2He8QtnNLLxYfof-11" target="RrsJA2He8QtnNLLxYfof-16">
          <mxGeometry relative="1" as="geometry">
            <mxPoint x="510" y="440" as="sourcePoint" />
            <mxPoint x="600" y="330" as="targetPoint" />
          </mxGeometry>
        </mxCell>
        <mxCell id="RrsJA2He8QtnNLLxYfof-16" value="Image Url" style="text;html=1;align=center;verticalAlign=middle;resizable=0;points=[];autosize=1;strokeColor=none;fillColor=none;" vertex="1" parent="1">
          <mxGeometry x="560" y="370" width="80" height="30" as="geometry" />
        </mxCell>
        <mxCell id="RrsJA2He8QtnNLLxYfof-18" value="" style="edgeStyle=orthogonalEdgeStyle;rounded=0;orthogonalLoop=1;jettySize=auto;html=1;exitX=0.5;exitY=1;exitDx=0;exitDy=0;entryX=0.5;entryY=0;entryDx=0;entryDy=0;" edge="1" parent="1" source="RrsJA2He8QtnNLLxYfof-1" target="RrsJA2He8QtnNLLxYfof-9">
          <mxGeometry relative="1" as="geometry">
            <mxPoint x="150" y="320" as="sourcePoint" />
            <mxPoint x="450" y="410" as="targetPoint" />
          </mxGeometry>
        </mxCell>
        <mxCell id="RrsJA2He8QtnNLLxYfof-19" style="edgeStyle=orthogonalEdgeStyle;rounded=0;orthogonalLoop=1;jettySize=auto;html=1;entryX=0;entryY=0.75;entryDx=0;entryDy=0;" edge="1" parent="1" source="RrsJA2He8QtnNLLxYfof-9" target="RrsJA2He8QtnNLLxYfof-11">
          <mxGeometry relative="1" as="geometry" />
        </mxCell>
        <mxCell id="RrsJA2He8QtnNLLxYfof-9" value="&amp;nbsp; Uploding the image" style="text;html=1;align=center;verticalAlign=middle;resizable=0;points=[];autosize=1;strokeColor=none;fillColor=none;" vertex="1" parent="1">
          <mxGeometry x="150" y="440" width="130" height="30" as="geometry" />
        </mxCell>
        <mxCell id="RrsJA2He8QtnNLLxYfof-20" value="" style="edgeStyle=orthogonalEdgeStyle;rounded=0;orthogonalLoop=1;jettySize=auto;html=1;exitX=1;exitY=0.5;exitDx=0;exitDy=0;" edge="1" parent="1" source="RrsJA2He8QtnNLLxYfof-1" target="RrsJA2He8QtnNLLxYfof-8">
          <mxGeometry relative="1" as="geometry">
            <mxPoint x="210" y="290" as="sourcePoint" />
            <mxPoint x="540" y="290" as="targetPoint" />
          </mxGeometry>
        </mxCell>
        <mxCell id="RrsJA2He8QtnNLLxYfof-8" value="Api Endpoint hits" style="text;html=1;align=center;verticalAlign=middle;resizable=0;points=[];autosize=1;strokeColor=none;fillColor=none;" vertex="1" parent="1">
          <mxGeometry x="315" y="275" width="110" height="30" as="geometry" />
        </mxCell>
      </root>
    </mxGraphModel>
  </diagram>
</mxfile>
